<?xml version="1.0" standalone="no"?><!DOCTYPE svg PUBLIC "-//W3C//DTD SVG 1.1//EN" "http://www.w3.org/Graphics/SVG/1.1/DTD/svg11.dtd"><svg t="1658732121238" class="icon" viewBox="0 0 1024 1024" version="1.1" xmlns="http://www.w3.org/2000/svg" p-id="911" xmlns:xlink="http://www.w3.org/1999/xlink" width="200" height="200"><defs><style type="text/css"></style></defs><path d="M512 464.40229502m-402.40229502 0a402.40229502 402.40229502 0 1 0 804.80459004 0 402.40229502 402.40229502 0 1 0-804.80459004 0Z" fill="#B5F5EC" p-id="912"></path><path d="M512 464.40229502m-273.00107549 0a273.00107549 273.00107549 0 1 0 546.00215098 0 273.00107549 273.00107549 0 1 0-546.00215098 0Z" fill="#36CFC9" p-id="913"></path><path d="M440.03872373 392.44101787m-71.96127626 0a71.96127627 71.96127627 0 1 0 143.92255253 0 71.96127627 71.96127627 0 1 0-143.92255253 0Z" fill="#B5F5EC" p-id="914"></path><path d="M286.11258506 858.73718164h-32.26963095l-32.26963008 103.26281836h580.85335195l-32.26963008-103.26281836h-32.26963096a419.50519893 419.50519893 0 0 1-451.77482988 0z" fill="#08979C" p-id="915"></path></svg>